<?xml version="1.0" encoding="utf-8"?>
<!-- Generator: Adobe Illustrator 21.1.0, SVG Export Plug-In . SVG Version: 6.00 Build 0)  -->
<svg version="1.1" id="Layer_1" xmlns="http://www.w3.org/2000/svg" xmlns:xlink="http://www.w3.org/1999/xlink" x="0px" y="0px"
	 viewBox="0 0 432 432" style="enable-background:new 0 0 432 432;" xml:space="preserve">
<style type="text/css">
	.st0{fill:#FFFFFF;}
</style>
<g>
	<path d="M19.6,59.6c-1.7,2.6-0.9,5.5-0.6,8.2c0.2,2,1,3.9,1.9,5.7c-0.1-2.5-0.4-5-0.4-7.6c0-2.1,0.7-2.7,2.8-2.3
		c3.2,0.7,6.5,1.4,9.7,2.5c22.5,7.4,43.2,18.4,62.4,32.1c25.3,18.1,47.3,39.5,65.7,64.5c5.1,7,10.4,13.9,17.1,19.6
		c1.5,1.3,3.4,2.2,5.3,2.8c1.5,0.6,3-0.1,4.3-1.5c-5.1-1.3-8.2-4.8-11.2-8.4c-5.6-6.9-11.3-13.9-16.6-21.1
		c-9.4-13-20.8-23.9-33-34.1C107,103.2,85.8,88,62.9,75.4C51.8,69.3,40.4,63.9,28,61c-2.7-0.6-5.4-1-8.1-1.5
		C19.8,59.6,19.7,59.6,19.6,59.6z"/>
	<path d="M250,186.7c3.1-1.6,5.6-3.7,6.8-7c0.5-1.4,1.2-2.7,3-2.4c1.3,0.2,2.5,2.2,2.4,3.9c0,0.5-0.2,1-0.4,1.8
		c1.2-0.1,2.3-0.1,3.3-0.2c12.9-0.1,25.9-0.5,38.8,0c16.4,0.6,32.8,1.9,49.3,3c8.9,0.6,17.7,1.3,26.6,2c1.1,0.1,2.1,0,3.2,0
		c0-0.2,0-0.4,0.1-0.6c-2.6-0.4-5.1-1-7.7-1.3c-20.2-2.2-40.4-4.5-60.5-6.6c-12.9-1.3-25.8-2.3-38.6-3.8c-5.5-0.6-10.9-2-15.5-5.4
		c-2-1.4-2.7-1.1-3.7,1.2c-0.2,0.5-0.4,1-0.6,1.5c-1.1,4.6-3,8.9-5.8,12.7C250.4,185.9,250.2,186.3,250,186.7z"/>
	<path d="M163.7,283.5c-0.3,3.5-0.7,7-0.9,10.5c-0.2,2.7-0.2,5.5-0.4,8.2c-0.2,4.2-2.8,6.2-6.9,5c-1.5-0.4-3.1-1.2-4.3-2.3
		c-9.6-8.4-16.6-18.4-18.9-31.2c-1.7-9.2-0.9-18.5,0.7-27.6c0.5-3,1-6,1.4-9.2c-0.4,0.1-0.5,0.1-0.6,0.2c-9.4,22.2-8,43.4,6,63.3
		c4.1,5.9,9.6,10.3,15.8,13.9c1.4,0.8,2.9,1.4,4.5,1.9c2.9,0.8,5-0.3,5.3-3.3c0.5-4.8,0.8-9.8,0.6-14.6c-0.2-4.9-0.9-9.8-1.4-14.7
		C164.3,283.5,164,283.5,163.7,283.5z"/>
	<path d="M41.3,124c-0.6-0.8-1.1-1.6-1.6-2.4c-1.3-1.9-2.7-3.7-4-5.6c-0.5-0.7-0.5-1.7-0.8-2.5c0.9-0.2,1.9-0.6,2.8-0.5
		c3.5,0.6,6.9,1.2,10.3,2.3c17.6,5.3,35.1,10.7,51.4,19.3c7.5,3.9,14.6,8.6,21.9,13c0.9,0.5,1.8,1,2.6,1.6c0.1-0.1,0.2-0.2,0.3-0.4
		c-0.6-0.7-1.2-1.4-1.9-2c-7.6-6.7-16.1-12-25-16.7c-14.9-7.9-30.9-13-47-17.5c-5.4-1.5-10.9-2.6-16.4-3.6c-3.1-0.5-3.5,0.2-2.6,3.2
		c1.5,4.9,4.9,8.3,8.7,11.5c0.2,0.2,0.5,0.3,0.7,0.3C40.7,124.2,40.9,124.1,41.3,124z"/>
	<path d="M28.8,105.6c-0.6-1.3-1.2-2.5-1.7-3.8c-0.8-1.7-1.6-3.5-2.2-5.2c-0.6-1.8-0.1-2.7,1.7-2.4c4.2,0.6,8.4,1.1,12.5,2.2
		c17.2,4.5,33,11.9,47.8,21.6c10.3,6.7,20.2,13.9,30.3,20.9c1.3,0.9,2.5,1.7,4.1,2.3c-0.7-0.7-1.3-1.5-2-2.2
		c-10.3-9.8-21.8-18-33.9-25.5c-17.4-10.7-36.2-18-56.2-22.2c-1.6-0.3-3.2-0.6-4.8-0.7c-1.9-0.2-2.9,0.6-2.7,2.4
		c0.5,5.1,3.1,9.2,6.5,12.9C28.4,105.8,28.6,105.7,28.8,105.6z"/>
	<path d="M23.1,89c-0.2-2.4-0.5-4.5-0.6-6.5c-0.2-3.1,0.3-3.7,3.3-3.3c6.8,0.9,13.1,3.4,19.4,5.9c17.8,7.1,33.6,17.6,48.6,29.4
		c7.1,5.6,14.1,11.4,21.1,17.2c0.9,0.7,1.8,1.3,3,1.7c-0.5-0.7-1-1.5-1.6-2.1c-8.6-9.3-18.3-17.3-28.3-25
		C69.8,92.4,49.7,82.4,27.7,76.3c-1.7-0.5-3.4-0.8-5.2-1.1c-1.1-0.2-2,0.2-2.1,1.4c-0.4,4.1,0.2,8,1.9,11.8
		C22.3,88.6,22.5,88.7,23.1,89z"/>
	<path d="M188.6,272c1.7-1.7,3.7-3.2,5.2-5.2c6.2-8.4,12.3-16.9,18.3-25.4c2.3-3.2,4.5-6.5,6.6-9.8c2.5-3.8,5-7.3,8-10.8
		c4.9-5.7,10.2-10.5,15.9-15.3c3.7-3.1,7.4-6.2,11.2-9.3c3.4-2.8,6.7-6.1,10.3-8.7c1.8-1.3,3.7-2.3,5.8-2.9
		c-3.2-1.1-6.8,0.6-9.3,2.7c-3.4,2.9-6.6,6-9.9,9c-3.9,3.4-7.7,6.9-11.6,10.3c-2.5,2.2-5.1,4.4-7.7,6.4c-3.6,2.8-6.2,6.4-8.9,10
		c-2.7,3.5-5.3,7.1-7.9,10.7c-5.1,7-10,14.1-15,21.2c-3.5,4.9-7,9.8-10.4,14.7c-0.4,0.6-0.8,1.2-1.2,1.8
		C188.3,271.6,188.4,271.8,188.6,272z"/>
	<path d="M53.2,142.3c-0.8-1.2-1.7-2.4-2.5-3.6c-1.3-1.8-2.6-3.6-3.7-5.5c-1.1-1.9-0.6-2.6,1.6-2.5c1.9,0.1,3.9,0.3,5.8,0.8
		c21.9,5.3,43.7,10.8,64.5,19.8c2,0.9,4,1.9,6,2.9c0.6,0.3,1.3,0.5,1.9,0.8c0.1-0.2,0.2-0.3,0.3-0.5c-0.9-0.8-1.7-1.9-2.8-2.5
		c-5.5-2.8-10.9-6-16.6-8.2c-19.2-7.1-39-12.5-59.1-16.4c-1.4-0.3-2.8-0.4-4.3-0.5c-1.6-0.2-2.3,0.7-1.8,2.1
		c0.9,2.3,1.9,4.8,3.4,6.8c1.9,2.6,4.4,4.9,6.7,7.3C52.7,142.7,53,142.5,53.2,142.3z"/>
	<path d="M172.7,263.9c6.4,6.9,13,13.7,19.2,20.9c4.4,5.1,8.3,10.7,12.2,16.3c1.1,1.6,1.7,3.5,2.3,5.4c0.5,1.7-0.3,2.9-2,3.3
		c-2.3,0.6-4.4,0.1-6.1-1.3c-5.1-4.2-10.1-8.5-15-12.8c-2.1-1.8-4-3.8-6-5.7c-0.1,0.1-0.2,0.2-0.4,0.3c1.1,1.6,2.2,3.3,3.4,4.9
		c4.7,6.3,9.7,12.3,16.3,16.8c1.8,1.3,4,2.2,6.1,3c2.4,0.8,4.6,0.2,6.4-1.7c1.9-2,2.7-4.4,1.4-6.8c-2-3.8-4-7.7-6.6-11.1
		c-9-11.6-19.7-21.6-30.7-31.2C173,264,172.9,264,172.7,263.9z"/>
	<path d="M64.5,161.6c-0.8-1.1-1.6-2.1-2.4-3.2c-1.4-1.9-2.9-3.7-4.1-5.7c-1.6-2.6-1-3.8,2-3.8c4,0,8.1,0,12.1,0.5
		c14.1,1.6,28.1,3.5,41.9,7c4.4,1.1,8.7,2.4,13,3.6c0.5,0.1,1.1,0.2,1.6,0.4c0.1-0.2,0.2-0.4,0.3-0.6c-1.1-0.7-2.1-1.7-3.3-2
		c-5.6-1.7-11.1-3.6-16.8-4.6c-14.6-2.6-29.4-4.8-44.1-7c-3.3-0.5-6.8-0.3-10.2-0.4c-1.6,0-2.2,0.9-1.7,2.4
		c1.7,5.6,5.2,9.9,9.7,13.5c0.4,0.3,1,0.4,1.5,0.6C64.3,161.9,64.4,161.8,64.5,161.6z"/>
	<path d="M174.9,349.4c0.3,2.7,0.8,5.2,0.8,7.7c0,2.4-0.1,5-0.9,7.3c-1.4,3.9-4.3,4.5-6.9,1.2c-2.6-3.3-4.9-6.9-6.8-10.7
		c-6.8-12.8-11.1-26.6-14.8-40.5c-0.2-0.7-0.4-1.4-0.6-2.1c-0.1-0.2-0.2-0.3-0.6-0.4c0.5,2.8,1,5.5,1.6,8.3
		c3.1,13.8,7.5,27.2,13.8,39.8c1.8,3.7,4.5,6.9,7.1,10.2c1.3,1.6,3.2,2.5,5.4,2.1c2.8-0.5,4.4-2.3,4.9-5c1.2-6,0-11.8-2.2-17.4
		C175.5,349.8,175.3,349.7,174.9,349.4z"/>
	<path d="M77.2,177.6c-1.8-1.5-3.5-3.1-5.3-4.6c-1.2-1.2-2.5-2.3-3.6-3.6c-1.9-2.3-1.6-3.4,1.4-3.9c4.1-0.6,8.3-1.1,12.5-1.2
		c15.1-0.4,30.2-0.5,45.3-0.8c0.8,0,1.6-0.2,2.4-0.2c0-0.2,0-0.5,0.1-0.7c-0.9-0.2-1.9-0.6-2.8-0.6c-8.2-0.2-16.4-0.6-24.7-0.5
		c-10.9,0.2-21.8,0.8-32.7,1.3c-1.8,0.1-3.6,0.7-5.4,1c-1.3,0.3-1.6,1.1-1,2.2c2.5,5.3,6.6,9.1,11.8,11.9c0.5,0.3,1.2,0.2,1.8,0.3
		C77,178,77.1,177.8,77.2,177.6z"/>
	<path d="M256.1,166.2c-0.2-0.3-0.3-0.7-0.6-0.9c-7.6-7.5-16.3-12.7-27.3-12.7c-4.6,0-8.9,1.4-12.7,4c-3.8,2.6-7.5,5.5-11.3,8.1
		c-6.1,4.2-12.2,8.3-18.3,12.4c-0.5,0.3-1,0.7-1.4,1.4c1-0.4,2.1-0.7,3.1-1.1c7.2-2.9,13.3-7.4,19.5-11.9c3.6-2.6,7.4-4.9,11.2-7.2
		c6.8-4.2,14.1-4.3,21.2-1.1c4.5,2,8.6,4.8,12.9,7.3c1.1,0.7,2.2,1.4,3.4,2.1C255.9,166.5,256,166.3,256.1,166.2z"/>
	<path d="M171.5,319.3c0.8,1.7,1.5,3.6,2.5,5.2c5.6,9.5,12.6,17.9,20.9,25.3c2.5,2.2,5.7,3.9,8.8,5.2c3.3,1.3,5.7-0.8,5.4-4.4
		c-0.4-4.8-3-8.5-6.6-11.6c0.4,0.9,0.8,1.7,1.1,2.6c0.7,1.8,1.6,3.6,2,5.5c0.6,3-1.6,4.7-4.2,3.2c-2.5-1.4-4.9-3.2-7.1-5.1
		c-8.1-7.4-14.9-15.9-21.3-24.7c-0.3-0.5-0.7-0.9-1-1.4C171.9,319.2,171.7,319.3,171.5,319.3z"/>
	<path d="M174.2,302.1c0.9,1.7,1.7,3.5,2.8,5.1c5.5,7.3,11.1,14.7,16.9,21.8c1.8,2.2,4.3,3.8,6.6,5.5c1,0.7,2.2,1.2,3.4,1.5
		c3.9,1.1,6.5-1.2,5.9-5.1c-0.4-3-3-8.6-5.3-11.2c0.7,2.8,1.4,5.4,1.9,8c0.5,2.5-0.9,3.9-3.3,3c-2.2-0.9-4.4-2.1-6.2-3.6
		c-3.7-3.4-7.3-6.9-10.6-10.7c-4.1-4.6-7.9-9.5-11.8-14.3C174.3,302.1,174.3,302.1,174.2,302.1z"/>
	<path d="M87.8,190.1c-1.5-1-3.1-1.9-4.5-2.9c-1.4-1-2.8-2-4-3.1c-1.5-1.4-1.4-2.3,0.5-3.1c2.9-1.2,5.8-2.3,8.9-3
		c13.2-2.8,26.4-5.5,39.6-8.2c1.3-0.3,2.5-0.6,3.8-0.9c0-0.2-0.1-0.4-0.1-0.7c-1.7,0.1-3.5,0.1-5.2,0.4c-15.5,3.1-31.1,6.2-46.6,9.5
		c-1.8,0.4-3.5,1.2-5.1,2c-0.4,0.2-0.8,1.4-0.6,1.7c2.9,4.5,7.1,7.2,12,9c0.3,0.1,0.8-0.1,1.2-0.2C87.7,190.5,87.7,190.3,87.8,190.1
		z"/>
	<path d="M110.8,207.1c-2.2-0.9-4.5-1.8-7.1-2.9c11-7.7,22.5-13.2,34.1-18.8c-0.1-0.2-0.2-0.5-0.3-0.7c-1.5,0.6-3.2,1-4.6,1.7
		c-9.7,5.1-19.3,10.3-29,15.4c-1.4,0.7-2.9,1.2-4.3,1.7c1.2,1.6,4.2,3.3,9,4.9c0.3,2.5,0.3,5,1.1,7.2c0.4,1.4,2,2.4,3,3.6
		c0.4,0.5,0.8,0.9,1.1,1.5c1,2.1,2.1,4.1,4.9,4c1.9,3.9,8,6.8,10.5,4.7c-1.7,0.8-2.6,0-3.7-1.2c-1-1.2-2.8-1.6-4-2.7
		c-1.2-1.2-2.1-2.4-4.1-2.6c-1.9-0.2-2.2-2.2-2.4-3.8c-0.1-1-0.4-1.6-1.4-2c-1.8-0.7-2.9-2.1-2.8-4.3
		C110.9,211,110.8,209.1,110.8,207.1z"/>
	<path d="M102,201.3c-2.9-1.2-5.3-2.2-7.7-3.4c-1.1-0.5-2.2-1.2-3.2-1.9c-1.1-0.7-1.1-1.7,0-2.4c1.5-1,3.1-2.1,4.7-2.7
		c10.1-3.8,20.2-7.5,30.3-11.1c2.7-1,5.4-1.8,8.2-2.7c0.7-0.2,1.3-0.6,2-0.9c-0.1-0.2-0.1-0.4-0.2-0.6c-1.2,0.2-2.5,0.4-3.7,0.8
		c-13.7,4.2-27.4,8.4-40.6,14.1c-1.6,0.7-3.1,1.6-4.6,2.6c-0.4,0.3-0.6,1.5-0.4,1.8c3.7,4.1,8.4,6.2,13.9,6.8
		C101,201.8,101.3,201.6,102,201.3z"/>
	<path d="M196.3,355.3c0.4,2,0.9,3.7,0.9,5.4c0,2.4-1.6,3.3-3.5,1.9c-2.7-2.2-5.5-4.5-7.6-7.2c-4.9-6.3-9.4-12.8-14-19.3
		c-0.8-1.2-1.6-2.4-2.4-3.7c-0.2,0.1-0.3,0.2-0.5,0.3c1.4,2.8,2.7,5.7,4.2,8.5c4.2,7.7,9.3,14.8,15.4,21.2c1.5,1.6,3.3,3,5.2,4.1
		c3,1.6,5.5-0.1,5.5-3.5C199.5,359.9,198.1,357.6,196.3,355.3z"/>
	<path d="M240.2,174.7c0-2.4,2.2-4.4,5-4.4c2.7,0,5,2,5,4.5c0,2.5-2.2,4.4-5,4.4C242.4,179.1,240.2,177.1,240.2,174.7z M246.7,175.3
		c0.5,0,1.5-1,1.4-1.4c-0.1-0.6-0.9-1.5-1.5-1.6c-0.5-0.1-1.2,0.7-2.4,1.6C245.4,174.6,246.1,175.3,246.7,175.3z"/>
	<path d="M137.7,193.7c-4.9,1.8-9.8,3.8-13.4,8c-1.8,2.1-4.1,3.7-6.1,5.4c-0.7,0.6-1.4,1.2-1.9,2c0.4-0.1,0.8-0.2,1.1-0.4
		c2.4-1.9,5.1-3.5,7.1-5.8c3-3.4,6.8-5.4,10.6-7.5c0.9-0.5,2-0.9,3-1.3C137.9,194.1,137.8,193.9,137.7,193.7z"/>
	<path d="M138.5,229.8c-1,0.8-2.1,1.7-3,2.4c-1.6-1.2-2.9-2.3-4.3-3.4c-0.2,0.3-0.6,0.8-0.8,1.2c1.4,1.3,2.7,2.5,4,3.5
		c0.4,0.3,1.5,0.2,1.8-0.2c1-0.9,1.7-2,2.6-3.1C138.8,230.1,138.6,229.9,138.5,229.8z"/>
	<path class="st0" d="M244.2,173.9c1.2,0.7,1.8,1.4,2.4,1.4c0.5,0,1.5-1,1.4-1.4c-0.1-0.6-0.9-1.5-1.5-1.6
		C246,172.3,245.4,173.1,244.2,173.9z"/>
	<path d="M155.8,206.2c-1.7,1.4-3.4,3-4.9,4.6c-1.5,1.6-3,3.3-4.3,5.1c-1.3,1.8-2.6,3.6-3.7,5.6c-0.6,1-1.1,1.9-1.6,2.9
		c-0.5,1-1,2-1.4,3l1.8-2.8c0.6-0.9,1.2-1.9,1.9-2.8c1.3-1.8,2.5-3.6,3.9-5.4c1.3-1.8,2.7-3.5,4.1-5.2
		C152.9,209.6,154.4,207.9,155.8,206.2z"/>
	<path d="M146.5,201c-0.9,0.9-1.6,2-2.4,3c-0.7,1-1.5,2.1-2.2,3.1c-1.4,2.1-2.8,4.2-4.2,6.4c-1.3,2.2-2.7,4.3-3.8,6.6
		c-1.1,2.3-2.2,4.6-3,7.1l0.1,0c1.3-2.2,2.5-4.4,3.8-6.6c1.2-2.2,2.4-4.5,3.6-6.7c1.2-2.2,2.5-4.4,3.9-6.5c0.7-1.1,1.4-2.1,2-3.2
		C145,203.1,145.7,202,146.5,201L146.5,201z"/>
	<path d="M122.9,221.8c0.2-0.3,0.5-0.7,0.7-1c0.2-0.3,0.5-0.7,0.7-1c2.6-3.9,5.1-7.8,7.9-11.5c1.4-1.9,2.8-3.7,4.3-5.5
		c1.4-1.6,3.4-3.2,4.5-5c-0.2,0.4-1.2,0.9-1.6,1.2c-0.5,0.4-1,0.8-1.5,1.2c-3.3,3-6,6.6-8.5,10.2c-1.3,1.9-2.7,3.8-3.9,5.7
		c-0.6,1-1.2,2.1-1.7,3.2c-0.4,1-0.7,2.2-1.3,3.1C122.7,222.1,122.8,222,122.9,221.8z"/>
</g>
</svg>
